# Blender v2.92.0 OBJ File: 'enemy.blend'
# www.blender.org
mtllib enemy.mtl
o Cube
v 1.720283 1.856884 -1.654204
v 1.720283 -1.856884 -1.654204
v 1.720283 1.856884 1.654204
v 1.720283 -1.856884 1.654204
v -1.720283 1.856884 -1.654204
v -1.720283 -1.856884 -1.654204
v -1.720283 1.856884 1.654204
v -1.720283 -1.856884 1.654204
v 1.000000 0.000000 -1.000000
v -1.000000 0.000000 1.000000
v 1.000000 0.000000 1.000000
v -1.000000 0.000000 -1.000000
v -1.000000 -1.000000 0.000000
v 1.000000 1.000000 0.000000
v -1.000000 1.000000 0.000000
v 1.000000 -1.000000 0.000000
v -3.000241 0.000000 0.000000
v 3.000241 0.000000 0.000000
v 0.000000 -1.000000 -1.000000
v 0.000000 1.000000 1.000000
v 0.000000 -1.000000 1.000000
v 0.000000 1.000000 -1.000000
v 0.000000 0.000000 3.001761
v 0.000000 0.000000 -3.001761
v 0.000000 2.664804 0.000000
v 0.000000 -2.664804 0.000000
vt 0.875000 0.625000
vt 0.750000 0.750000
vt 0.750000 0.625000
vt 0.625000 0.875000
vt 0.500000 1.000000
vt 0.500000 0.875000
vt 0.625000 0.125000
vt 0.500000 0.250000
vt 0.500000 0.125000
vt 0.375000 0.625000
vt 0.250000 0.750000
vt 0.250000 0.625000
vt 0.625000 0.625000
vt 0.500000 0.750000
vt 0.500000 0.625000
vt 0.625000 0.375000
vt 0.500000 0.500000
vt 0.500000 0.375000
vt 0.375000 0.375000
vt 0.375000 0.500000
vt 0.375000 0.750000
vt 0.375000 0.125000
vt 0.375000 0.250000
vt 0.375000 0.875000
vt 0.375000 1.000000
vt 0.500000 0.000000
vt 0.375000 0.000000
vt 0.250000 0.500000
vt 0.750000 0.500000
vt 0.625000 0.500000
vt 0.125000 0.625000
vt 0.125000 0.500000
vt 0.125000 0.750000
vt 0.625000 0.750000
vt 0.875000 0.750000
vt 0.625000 1.000000
vt 0.625000 0.250000
vt 0.625000 0.000000
vt 0.875000 0.500000
vn 0.6943 0.1895 -0.6943
vn 0.6963 -0.6963 0.1740
vn -0.1741 -0.6963 0.6963
vn -0.6943 -0.1895 -0.6943
vn 0.1741 -0.6963 -0.6963
vn -0.6963 -0.6963 -0.1740
vn -0.2389 0.2389 -0.9412
vn 0.9267 0.2658 -0.2658
vn -0.9267 0.2658 0.2658
vn 0.2389 0.2389 0.9412
vn -0.9267 0.2658 -0.2658
vn 0.9267 0.2658 0.2658
vn 0.1741 -0.6963 0.6963
vn -0.6943 -0.1895 0.6943
vn -0.1741 -0.6963 -0.6963
vn 0.6943 0.1895 0.6943
vn -0.3214 0.8907 0.3214
vn 0.3214 -0.8907 0.3214
vn -0.2389 0.2389 0.9412
vn 0.2389 0.2389 -0.9412
vn 0.6963 -0.6963 -0.1740
vn 0.3214 -0.8907 -0.3214
vn -0.6963 -0.6963 0.1740
vn -0.3214 0.8907 -0.3214
vn 0.3214 0.8907 -0.3214
vn 0.2389 -0.2389 0.9412
vn -0.9267 -0.2658 0.2658
vn -0.3214 -0.8907 -0.3214
vn 0.9267 -0.2658 -0.2658
vn -0.2389 -0.2389 -0.9412
vn -0.6963 0.6963 -0.1740
vn 0.1741 0.6963 -0.6963
vn -0.1741 0.6963 0.6963
vn 0.6963 0.6963 0.1740
vn -0.1741 0.6963 -0.6963
vn 0.1741 0.6963 0.6963
vn 0.9267 -0.2658 0.2658
vn -0.3214 -0.8907 0.3214
vn -0.9267 -0.2658 -0.2658
vn 0.3214 0.8907 0.3214
vn -0.6943 0.1895 0.6943
vn 0.6943 -0.1895 0.6943
vn -0.6963 0.6963 0.1740
vn 0.6963 0.6963 -0.1740
vn 0.2389 -0.2389 -0.9412
vn 0.6943 -0.1895 -0.6943
vn -0.2389 -0.2389 0.9412
vn -0.6943 0.1895 -0.6943
usemtl Material
s off
f 15/1/1 20/2/1 26/3/1
f 20/4/2 10/5/2 24/6/2
f 15/7/3 12/8/3 18/9/3
f 16/10/4 21/11/4 25/12/4
f 14/13/5 11/14/5 17/15/5
f 22/16/6 9/17/6 23/18/6
f 19/19/7 9/17/7 2/20/7
f 16/10/8 11/14/8 4/21/8
f 13/22/9 12/8/9 6/23/9
f 21/24/10 10/5/10 8/25/10
f 10/26/11 13/22/11 8/27/11
f 9/17/12 16/10/12 2/20/12
f 9/17/13 14/13/13 17/15/13
f 19/28/14 16/10/14 25/12/14
f 10/26/15 15/7/15 18/9/15
f 22/29/16 15/1/16 26/3/16
f 22/29/17 14/13/17 1/30/17
f 19/28/18 13/31/18 6/32/18
f 11/14/19 21/24/19 4/21/19
f 12/8/20 19/19/20 6/23/20
f 12/8/21 22/16/21 23/18/21
f 13/31/22 21/11/22 8/33/22
f 11/14/23 20/4/23 24/6/23
f 14/13/24 20/2/24 3/34/24
f 15/1/25 7/35/25 20/2/25
f 20/4/26 7/36/26 10/5/26
f 15/7/27 5/37/27 12/8/27
f 16/10/28 4/21/28 21/11/28
f 14/13/29 3/34/29 11/14/29
f 22/16/30 1/30/30 9/17/30
f 19/19/31 23/18/31 9/17/31
f 16/10/32 17/15/32 11/14/32
f 13/22/33 18/9/33 12/8/33
f 21/24/34 24/6/34 10/5/34
f 10/26/35 18/9/35 13/22/35
f 9/17/36 17/15/36 16/10/36
f 9/17/37 1/30/37 14/13/37
f 19/28/38 2/20/38 16/10/38
f 10/26/39 7/38/39 15/7/39
f 22/29/40 5/39/40 15/1/40
f 22/29/41 26/3/41 14/13/41
f 19/28/42 25/12/42 13/31/42
f 11/14/43 24/6/43 21/24/43
f 12/8/44 23/18/44 19/19/44
f 12/8/45 5/37/45 22/16/45
f 13/31/46 25/12/46 21/11/46
f 11/14/47 3/34/47 20/4/47
f 14/13/48 26/3/48 20/2/48
