# Blender v2.92.0 OBJ File: 'untitled.blend'
# www.blender.org
mtllib arrow.mtl
o 立方体
v 0.000000 -0.050000 1.000000
v 0.000000 0.050000 1.000000
v -0.250000 -0.050000 0.000000
v -0.250000 0.050000 0.000000
v 0.250000 -0.050000 0.000000
v 0.250000 0.050000 0.000000
v 0.000000 -0.050000 -1.000000
v 0.000000 0.050000 -1.000000
v -0.679602 -0.050000 0.000000
v -0.679602 0.050000 0.000000
v 0.661249 -0.050000 0.000000
v 0.661249 0.050000 0.000000
v 0.000000 0.050000 0.000000
v 0.000000 -0.050000 0.000000
v 0.250000 -0.050000 -1.000000
v 0.250000 0.050000 -1.000000
v -0.250000 -0.050000 -1.000000
v -0.250000 0.050000 -1.000000
vt 0.927513 0.469586
vt 0.826646 0.000000
vt 0.927513 0.000000
vt 0.234793 0.469586
vt 0.000000 0.939172
vt 0.000000 0.469586
vt 0.826646 0.469586
vt 0.591853 0.000000
vt 0.826646 0.000000
vt 0.511310 0.195848
vt 0.591852 0.142589
vt 0.591852 0.424072
vt 0.413386 0.587544
vt 0.329250 0.531909
vt 0.591852 0.424072
vt 0.511310 0.652296
vt 0.462348 0.619920
vt 0.413386 0.260600
vt 0.462348 0.228224
vt 0.903442 0.939172
vt 0.844743 0.469586
vt 0.903442 0.469586
vt 0.332844 0.032376
vt 0.283882 0.064752
vt 0.332844 0.815768
vt 0.381806 0.848144
vt 1.000000 0.939172
vt 0.903442 0.469586
vt 1.000000 0.469586
vt 0.283882 0.469586
vt 0.000000 0.000000
vt 0.283882 0.000000
vt 0.591852 0.705554
vt 0.844743 0.939172
vt 0.786045 0.469586
vt 0.381806 0.000000
vt 0.234793 0.939172
vt 0.786045 0.939172
vt 0.591852 0.469586
vt 0.786045 0.469586
vt 0.329250 0.316235
vt 0.283882 0.783392
vt 0.826646 0.469586
vt 0.591853 0.469586
vt 0.903442 0.939172
vt 0.000000 0.469586
vt 0.786045 0.939172
vt 0.591852 0.939172
vn 0.0000 0.0000 -1.0000
vn 1.0000 0.0000 0.0000
vn 0.8341 0.0000 0.5516
vn 0.0000 -1.0000 0.0000
vn 0.0000 1.0000 0.0000
vn -0.8271 0.0000 0.5621
vn -1.0000 0.0000 0.0000
usemtl マテリアル.001
s off
f 10/1/1 3/2/1 9/3/1
f 15/4/2 6/5/2 5/6/2
f 12/7/3 1/8/3 11/9/3
f 5/10/4 11/11/4 1/12/4
f 4/13/5 10/14/5 2/15/5
f 6/16/5 13/17/5 2/15/5
f 3/18/4 14/19/4 1/12/4
f 18/20/1 7/21/1 17/22/1
f 7/23/4 3/18/4 17/24/4
f 8/25/5 6/16/5 16/26/5
f 6/27/1 11/28/1 5/29/1
f 2/30/6 9/31/6 1/32/6
f 12/33/5 6/16/5 2/15/5
f 8/34/1 15/35/1 7/21/1
f 14/19/4 5/10/4 1/12/4
f 15/36/4 14/19/4 7/23/4
f 15/4/2 16/37/2 6/5/2
f 4/38/7 17/39/7 3/40/7
f 9/41/4 3/18/4 1/12/4
f 13/17/5 4/13/5 2/15/5
f 18/42/5 13/17/5 8/25/5
f 10/1/1 4/43/1 3/2/1
f 12/7/3 2/44/3 1/8/3
f 18/20/1 8/34/1 7/21/1
f 7/23/4 14/19/4 3/18/4
f 8/25/5 13/17/5 6/16/5
f 6/27/1 12/45/1 11/28/1
f 2/30/6 10/46/6 9/31/6
f 8/34/1 16/47/1 15/35/1
f 15/36/4 5/10/4 14/19/4
f 4/38/7 18/48/7 17/39/7
f 18/42/5 4/13/5 13/17/5
