# Blender v2.92.0 OBJ File: ''
# www.blender.org
mtllib arrow.mtl
o 平面
v 0.000000 0.000000 0.250000
v 1.000000 0.000000 0.000000
v 0.000000 0.000000 -0.250000
v 0.000000 0.000000 0.681276
v 0.000000 0.000000 -0.636957
v -1.000000 0.000000 0.000000
v 0.000000 0.000000 0.000000
v -1.000000 0.000000 0.250000
v -1.000000 0.000000 -0.250000
vt 0.183582 0.474424
vt 0.097580 1.000000
vt 0.000000 0.395250
vt 0.420794 0.576728
vt 0.506795 0.051152
vt 0.625401 0.102304
vt 0.302188 0.525576
vt 0.625401 0.664970
vt 0.388189 0.000000
vn 0.0000 1.0000 0.0000
usemtl マテリアル
s off
f 3/1/1 2/2/1 5/3/1
f 1/4/1 6/5/1 8/6/1
f 1/4/1 2/2/1 7/7/1
f 4/8/1 2/2/1 1/4/1
f 7/7/1 2/2/1 3/1/1
f 7/7/1 9/9/1 6/5/1
f 1/4/1 7/7/1 6/5/1
f 7/7/1 3/1/1 9/9/1
